# xmcd
#
# Track frame offsets: 
#        150
#        9622
#        17345
#        34410
#        51217
#        68842
#        84307
#        101262
#        117137
#        128115
#        144975
#        163300
#        176897
#        194037
#        209920
#        227657
#        241595
#        251715
#        269692
#        285295
#
# Disc length: 3975 seconds
#
# Revision: 0
# Processed by: cddbd v1.5.2PL0 Copyright (c) Steve Scherf et al.
# Submitted via: ExactAudioCopy v1.0b3
#
DISCID=1f0f8514
DTITLE=Various Artist - Countrymix for Countryfreaks
DYEAR=1900
DGENRE=Country
TTITLE0=Danny Boy (Canada) - He Is The First And Last World In Heartac
TTITLE0=he
TTITLE1=Hermann Lammers Meyer (Germany) - Robbin' Heatrs 
TTITLE2=Barbara Leah Meyer (Canada) - Out On A Limb
TTITLE3=White Canyon (Norwey) - Our Love Is Not Perfect
TTITLE4=L. J. Payne (Canada) - Devil Made Me Do It Tonight
TTITLE5=Ulii Moehring and Autumn Leaves (Germany) - Keeping It Cool
TTITLE6=The Next Of Kin (Denmark) - Each Day My Whole Life Through
TTITLE7=Debbie Baker (Canada) - He Thinks I'm Listening
TTITLE8=Dann Garner (USA) - I Can't Live Without You
TTITLE9=Texas Country Band (Sweden) - Two People
TTITLE10=Ogden Harless ( USA) - No Last Refrain
TTITLE11=Bob Dilay (USA) - I'd Like To Write Myself A Song
TTITLE12=Cari Schauer (Denmark) - New Beginning
TTITLE13=Bill Rhyne and The Coronados (USA) - Texas ''Tao'' Boy
TTITLE14=Dick Damron (Canada) - Jesus It's Me Again
TTITLE15=Ronny Serzmark ( Sweden) - Still Miss The Time
TTITLE16=Nice Boys From N. Y. (USA) - We Don't Talk About The Harley
TTITLE17=Back In Business (Denmark) - Sing Me Back Home
TTITLE18=Debbie and Gale Davies (USA) - Be Mine Againe
TTITLE19=Roger Cormier (Canada) - Santa's Magic Slaigh
EXTD=
EXTT0=
EXTT1=
EXTT2=
EXTT3=
EXTT4=
EXTT5=
EXTT6=
EXTT7=
EXTT8=
EXTT9=
EXTT10=
EXTT11=
EXTT12=
EXTT13=
EXTT14=
EXTT15=
EXTT16=
EXTT17=
EXTT18=
EXTT19=
PLAYORDER=
